<svg xmlns="http://www.w3.org/2000/svg" version="1.1" xmlns:xlink="http://www.w3.org/1999/xlink" xmlns:svgjs="http://svgjs.dev/svgjs" width="2000" height="833" preserveAspectRatio="none" viewBox="0 0 2000 833">
    <g mask="url(&quot;#SvgjsMask1067&quot;)" fill="none">
        <rect width="2000" height="833" x="0" y="0" fill="url(&quot;#SvgjsLinearGradient1068&quot;)"></rect>
        <path d="M2000 0L1428.6399999999999 0L2000 133.59z" fill="rgba(255, 255, 255, .1)"></path>
        <path d="M1428.6399999999999 0L2000 133.59L2000 374.4L974.4599999999998 0z" fill="rgba(255, 255, 255, .075)"></path>
        <path d="M974.46 0L2000 374.4L2000 643.3399999999999L486.88000000000005 0z" fill="rgba(255, 255, 255, .05)"></path>
        <path d="M486.8800000000001 0L2000 643.3399999999999L2000 695.6499999999999L283.4500000000001 0z" fill="rgba(255, 255, 255, .025)"></path>
        <path d="M0 833L921.72 833L0 674.92z" fill="rgba(0, 0, 0, .1)"></path>
        <path d="M0 674.92L921.72 833L1191.44 833L0 447.63z" fill="rgba(0, 0, 0, .075)"></path>
        <path d="M0 447.63L1191.44 833L1413.27 833L0 438.15z" fill="rgba(0, 0, 0, .05)"></path>
        <path d="M0 438.15L1413.27 833L1537.3899999999999 833L0 170.44z" fill="rgba(0, 0, 0, .025)"></path>
    </g>
    <defs>
        <mask id="SvgjsMask1067">
            <rect width="2000" height="833" fill="#ffffff"></rect>
        </mask>
        <linearGradient x1="14.59%" y1="-35.02%" x2="85.41%" y2="135.02%" gradientUnits="userSpaceOnUse" id="SvgjsLinearGradient1068">
            <stop stop-color="rgba(255, 255, 255, 1)" offset="0"></stop>
            <stop stop-color="rgba(227, 227, 227, 1)" offset="0.96"></stop>
            <stop stop-color="rgba(227, 227, 227, 1)" offset="1"></stop>
            <stop stop-color="rgba(191, 177, 163, 1)" offset="1"></stop>
        </linearGradient>
    </defs>
</svg>