<svg xmlns="http://www.w3.org/2000/svg" width="15.448" height="20.073" viewBox="0 0 15.448 20.073">
  <g id="그룹_3703" data-name="그룹 3703" transform="translate(-14.422 -10.317)">
    <path id="download" d="M10.292,3.51,6.781,0,3.27,3.51l.646.646L6.324,1.748v8.12h.913V1.748L9.646,4.156Z" transform="translate(15.151 10.317)" fill="#fff"/>
    <path id="패스_2115" data-name="패스 2115" d="M2-4.952H.1V-5.64H4.744v.688H2.832V0H2ZM7.576.064A2.651,2.651,0,0,1,6.188-.288a2.345,2.345,0,0,1-.908-1,3.414,3.414,0,0,1-.32-1.528,3.5,3.5,0,0,1,.316-1.54,2.283,2.283,0,0,1,.908-1A2.7,2.7,0,0,1,7.576-5.7a2.713,2.713,0,0,1,1.4.348,2.283,2.283,0,0,1,.908,1A3.477,3.477,0,0,1,10.2-2.824a3.477,3.477,0,0,1-.316,1.532,2.307,2.307,0,0,1-.908,1A2.689,2.689,0,0,1,7.576.064Zm0-.672A1.612,1.612,0,0,0,8.9-1.184a2.525,2.525,0,0,0,.472-1.64A2.523,2.523,0,0,0,8.9-4.46a1.614,1.614,0,0,0-1.324-.572,1.6,1.6,0,0,0-1.308.572A2.523,2.523,0,0,0,5.8-2.824a2.54,2.54,0,0,0,.468,1.64A1.591,1.591,0,0,0,7.576-.608ZM11.32-5.64h2.336a2.027,2.027,0,0,1,1.392.44,1.581,1.581,0,0,1,.5,1.248,1.6,1.6,0,0,1-.5,1.248,2,2,0,0,1-1.392.448H12.144V0H11.32Zm2.248,2.72q1.184,0,1.184-1.032T13.568-4.976H12.144V-2.92Z" transform="translate(14.326 30.326)" fill="#fff"/>
  </g>
</svg>
